# xmcd
#
# Track frame offsets: 
#        150
#        17202
#        34570
#        51752
#        70252
#        88265
#        103367
#        116992
#        141165
#        159742
#        181490
#        203467
#        221325
#        236802
#        265372
#
# Disc length: 3784 seconds
#
# Revision: 2
# Processed by: cddbd v1.5.2PL0 Copyright (c) Steve Scherf et al.
# Submitted via: ExactAudioCopy v1.3
#
DISCID=e10ec60f
DTITLE=Axel Zwingenberger and Torsten Zwingenberger - Brothers In Boogie
DYEAR=1999
DGENRE=Blues
TTITLE0=Brothers In Boogie
TTITLE1=Boogie-Mom and Woogie-Dad
TTITLE2=Grandma's Stride
TTITLE3=Johnny's Jumpin' Latin Joint
TTITLE4=Champ Of Charme
TTITLE5=H. M. Hop
TTITLE6=Cooney's Cornet
TTITLE7=Pinetop's Boogie Woogie
TTITLE8=Rolling For Big Joe
TTITLE9=Mo' A-Beat
TTITLE10=African Groovin'
TTITLE11=To Those Who Love These Blues
TTITLE12=Fish Head Boogie
TTITLE13=Rockin' The Philharmonic
TTITLE14=In A Moeller Tone
EXTD=Axel Zwingenberger - piano, Torsten Zwingenberger - drums
EXTT0=
EXTT1=
EXTT2=
EXTT3=
EXTT4=
EXTT5=
EXTT6=
EXTT7=
EXTT8=
EXTT9=
EXTT10=
EXTT11=
EXTT12=
EXTT13=
EXTT14=
PLAYORDER=
